<mxfile host="app.diagrams.net" modified="2024-07-05T13:39:59.794Z" agent="Mozilla/5.0 (Windows NT 10.0; Win64; x64) AppleWebKit/537.36 (KHTML, like Gecko) Chrome/125.0.0.0 Safari/537.36 Edg/125.0.0.0" etag="6iIGYieSmsuzbpVwBCNM" version="24.6.4" type="github">
  <diagram name="Page-1" id="5XE_SFnsfMAJbMYvVwAM">
    <mxGraphModel dx="832" dy="491" grid="1" gridSize="10" guides="1" tooltips="1" connect="1" arrows="1" fold="1" page="1" pageScale="1" pageWidth="850" pageHeight="1100" background="#000033" math="0" shadow="0">
      <root>
        <mxCell id="0" />
        <mxCell id="1" parent="0" />
        <mxCell id="KOa0Be6PfY8C4eAzwzcs-1" value="admin" style="swimlane;whiteSpace=wrap;html=1;strokeColor=#FFFFFF;" vertex="1" parent="1">
          <mxGeometry x="160" y="380" width="200" height="460" as="geometry" />
        </mxCell>
        <mxCell id="KOa0Be6PfY8C4eAzwzcs-13" style="edgeStyle=orthogonalEdgeStyle;rounded=0;orthogonalLoop=1;jettySize=auto;html=1;exitX=0.5;exitY=1;exitDx=0;exitDy=0;entryX=0.5;entryY=0;entryDx=0;entryDy=0;strokeColor=#FFFFFF;" edge="1" parent="KOa0Be6PfY8C4eAzwzcs-1" source="KOa0Be6PfY8C4eAzwzcs-3" target="KOa0Be6PfY8C4eAzwzcs-6">
          <mxGeometry relative="1" as="geometry" />
        </mxCell>
        <mxCell id="KOa0Be6PfY8C4eAzwzcs-3" value="" style="ellipse;html=1;shape=startState;fillColor=#FFFFFF;strokeColor=#FFFFFF;" vertex="1" parent="KOa0Be6PfY8C4eAzwzcs-1">
          <mxGeometry x="85" y="60" width="30" height="30" as="geometry" />
        </mxCell>
        <mxCell id="KOa0Be6PfY8C4eAzwzcs-6" value="&lt;font color=&quot;#ffffff&quot;&gt;login sebagai admin&lt;/font&gt;" style="html=1;whiteSpace=wrap;fillColor=none;strokeColor=#FFFFFF;rounded=1;" vertex="1" parent="KOa0Be6PfY8C4eAzwzcs-1">
          <mxGeometry x="45" y="120" width="110" height="50" as="geometry" />
        </mxCell>
        <mxCell id="KOa0Be6PfY8C4eAzwzcs-9" value="&lt;font color=&quot;#ffffff&quot;&gt;memilih opsi&lt;/font&gt;&lt;div&gt;&lt;font color=&quot;#ffffff&quot;&gt;&quot;data absensi&quot;&lt;/font&gt;&lt;/div&gt;" style="html=1;whiteSpace=wrap;fillColor=none;strokeColor=#FFFFFF;rounded=1;" vertex="1" parent="KOa0Be6PfY8C4eAzwzcs-1">
          <mxGeometry x="45" y="210" width="110" height="50" as="geometry" />
        </mxCell>
        <mxCell id="KOa0Be6PfY8C4eAzwzcs-11" value="&lt;font color=&quot;#ffffff&quot;&gt;memilih opsi&lt;/font&gt;&lt;div&gt;&lt;font color=&quot;#ffffff&quot;&gt;&quot;cetak data&quot;&lt;/font&gt;&lt;/div&gt;" style="html=1;whiteSpace=wrap;fillColor=none;strokeColor=#FFFFFF;rounded=1;" vertex="1" parent="KOa0Be6PfY8C4eAzwzcs-1">
          <mxGeometry x="45" y="300" width="110" height="50" as="geometry" />
        </mxCell>
        <mxCell id="KOa0Be6PfY8C4eAzwzcs-20" value="&lt;font color=&quot;#ffffff&quot;&gt;mulai&lt;/font&gt;" style="text;html=1;align=center;verticalAlign=middle;whiteSpace=wrap;rounded=0;" vertex="1" parent="KOa0Be6PfY8C4eAzwzcs-1">
          <mxGeometry x="70" y="32" width="60" height="30" as="geometry" />
        </mxCell>
        <mxCell id="KOa0Be6PfY8C4eAzwzcs-2" value="sistem" style="swimlane;whiteSpace=wrap;html=1;strokeColor=#FFFFFF;" vertex="1" parent="1">
          <mxGeometry x="360" y="380" width="200" height="460" as="geometry" />
        </mxCell>
        <mxCell id="KOa0Be6PfY8C4eAzwzcs-5" value="" style="ellipse;html=1;shape=endState;fillColor=#FFFFFF;strokeColor=#FFFFFF;" vertex="1" parent="KOa0Be6PfY8C4eAzwzcs-2">
          <mxGeometry x="85" y="390" width="30" height="30" as="geometry" />
        </mxCell>
        <mxCell id="KOa0Be6PfY8C4eAzwzcs-8" value="&lt;font color=&quot;#ffffff&quot;&gt;tampil halaman utama admin&lt;/font&gt;" style="html=1;whiteSpace=wrap;fillColor=none;strokeColor=#FFFFFF;rounded=1;" vertex="1" parent="KOa0Be6PfY8C4eAzwzcs-2">
          <mxGeometry x="45" y="120" width="110" height="50" as="geometry" />
        </mxCell>
        <mxCell id="KOa0Be6PfY8C4eAzwzcs-10" value="&lt;font color=&quot;#ffffff&quot;&gt;tampil halaman&lt;/font&gt;&lt;div&gt;&lt;font color=&quot;#ffffff&quot;&gt;data absensi&lt;/font&gt;&lt;/div&gt;" style="html=1;whiteSpace=wrap;fillColor=none;strokeColor=#FFFFFF;rounded=1;" vertex="1" parent="KOa0Be6PfY8C4eAzwzcs-2">
          <mxGeometry x="45" y="210" width="110" height="50" as="geometry" />
        </mxCell>
        <mxCell id="KOa0Be6PfY8C4eAzwzcs-19" style="edgeStyle=orthogonalEdgeStyle;rounded=0;orthogonalLoop=1;jettySize=auto;html=1;exitX=0.5;exitY=1;exitDx=0;exitDy=0;entryX=0.5;entryY=0;entryDx=0;entryDy=0;strokeColor=#FFFFFF;" edge="1" parent="KOa0Be6PfY8C4eAzwzcs-2" source="KOa0Be6PfY8C4eAzwzcs-12" target="KOa0Be6PfY8C4eAzwzcs-5">
          <mxGeometry relative="1" as="geometry" />
        </mxCell>
        <mxCell id="KOa0Be6PfY8C4eAzwzcs-12" value="&lt;font color=&quot;#ffffff&quot;&gt;mencetak data format pdf&lt;/font&gt;" style="html=1;whiteSpace=wrap;fillColor=none;strokeColor=#FFFFFF;rounded=1;" vertex="1" parent="KOa0Be6PfY8C4eAzwzcs-2">
          <mxGeometry x="45" y="300" width="110" height="50" as="geometry" />
        </mxCell>
        <mxCell id="KOa0Be6PfY8C4eAzwzcs-21" value="&lt;font color=&quot;#ffffff&quot;&gt;selesai&lt;/font&gt;" style="text;html=1;align=center;verticalAlign=middle;whiteSpace=wrap;rounded=0;" vertex="1" parent="KOa0Be6PfY8C4eAzwzcs-2">
          <mxGeometry x="70" y="420" width="60" height="30" as="geometry" />
        </mxCell>
        <mxCell id="KOa0Be6PfY8C4eAzwzcs-14" style="edgeStyle=orthogonalEdgeStyle;rounded=0;orthogonalLoop=1;jettySize=auto;html=1;exitX=1;exitY=0.5;exitDx=0;exitDy=0;entryX=0;entryY=0.5;entryDx=0;entryDy=0;strokeColor=#FFFFFF;" edge="1" parent="1" source="KOa0Be6PfY8C4eAzwzcs-6" target="KOa0Be6PfY8C4eAzwzcs-8">
          <mxGeometry relative="1" as="geometry" />
        </mxCell>
        <mxCell id="KOa0Be6PfY8C4eAzwzcs-15" style="edgeStyle=orthogonalEdgeStyle;rounded=0;orthogonalLoop=1;jettySize=auto;html=1;exitX=0.5;exitY=1;exitDx=0;exitDy=0;entryX=0.5;entryY=0;entryDx=0;entryDy=0;strokeColor=#FFFFFF;" edge="1" parent="1" source="KOa0Be6PfY8C4eAzwzcs-8" target="KOa0Be6PfY8C4eAzwzcs-9">
          <mxGeometry relative="1" as="geometry" />
        </mxCell>
        <mxCell id="KOa0Be6PfY8C4eAzwzcs-16" style="edgeStyle=orthogonalEdgeStyle;rounded=0;orthogonalLoop=1;jettySize=auto;html=1;exitX=1;exitY=0.5;exitDx=0;exitDy=0;entryX=0;entryY=0.5;entryDx=0;entryDy=0;strokeColor=#FFFFFF;" edge="1" parent="1" source="KOa0Be6PfY8C4eAzwzcs-9" target="KOa0Be6PfY8C4eAzwzcs-10">
          <mxGeometry relative="1" as="geometry" />
        </mxCell>
        <mxCell id="KOa0Be6PfY8C4eAzwzcs-17" style="edgeStyle=orthogonalEdgeStyle;rounded=0;orthogonalLoop=1;jettySize=auto;html=1;exitX=0.5;exitY=1;exitDx=0;exitDy=0;entryX=0.5;entryY=0;entryDx=0;entryDy=0;strokeColor=#FFFFFF;" edge="1" parent="1" source="KOa0Be6PfY8C4eAzwzcs-10" target="KOa0Be6PfY8C4eAzwzcs-11">
          <mxGeometry relative="1" as="geometry" />
        </mxCell>
        <mxCell id="KOa0Be6PfY8C4eAzwzcs-18" style="edgeStyle=orthogonalEdgeStyle;rounded=0;orthogonalLoop=1;jettySize=auto;html=1;exitX=1;exitY=0.5;exitDx=0;exitDy=0;entryX=0;entryY=0.5;entryDx=0;entryDy=0;strokeColor=#FFFFFF;" edge="1" parent="1" source="KOa0Be6PfY8C4eAzwzcs-11" target="KOa0Be6PfY8C4eAzwzcs-12">
          <mxGeometry relative="1" as="geometry" />
        </mxCell>
      </root>
    </mxGraphModel>
  </diagram>
</mxfile>
